<?xml version="1.0" encoding="utf-8"?>
<!-- Generator: Adobe Illustrator 22.1.0, SVG Export Plug-In . SVG Version: 6.00 Build 0)  -->
<svg version="1.1" id="Layer_1" xmlns="http://www.w3.org/2000/svg" xmlns:xlink="http://www.w3.org/1999/xlink" x="0px" y="0px"
	 viewBox="0 0 1080 1080" style="enable-background:new 0 0 1080 1080;" xml:space="preserve">
<style type="text/css">
	.st0{fill:#ffffff;}
</style>
<g>
	<path class="st0" d="M524.3,812.8h-40.2c-8.4,0-15.1,6.8-15.1,15.1c0,8.4,6.8,15.1,15.1,15.1h40.2c8.4,0,15.1-6.8,15.1-15.1
		C539.4,819.6,532.6,812.8,524.3,812.8z"/>
	<path class="st0" d="M540,116.9c-158,0-286.5,128.5-286.5,286.5c0,54.4,15.3,107.4,44.3,153.1c26.5,41.8,63.3,76,106.8,99.4v38.6
		c-13.7,8.1-22.8,22.9-22.8,39.9c0,12,4.6,22.9,12.1,31.2c-7.5,8.2-12.1,19.2-12.1,31.2c0,12,4.6,22.9,12.1,31.2
		c-7.5,8.2-12.1,19.2-12.1,31.2c0,25.5,20.8,46.3,46.3,46.3h9.7l9,27.7c5.9,18,22.5,30,41.4,30h103.6c18.9,0,35.5-12.1,41.4-30
		l9-27.7h8.5c25.5,0,46.3-20.8,46.3-46.3c0-12-4.6-22.9-12.1-31.2c7.5-8.2,12.1-19.2,12.1-31.2c0-12-4.6-22.9-12.1-31.2
		c7.5-8.2,12.1-19.2,12.1-31.2c0-16.9-9.1-31.7-22.7-39.8v-38.2c43.7-23.3,80.8-57.5,107.5-99.4c29.2-45.9,44.6-99,44.6-153.6
		C826.5,245.4,698,116.9,540,116.9z M604.4,923.7c-1.8,5.5-6.9,9.2-12.6,9.2H488.2c-5.8,0-10.8-3.7-12.6-9.2l-6-18.3h140.8
		L604.4,923.7z M650.7,780.7c8.9,0,16.1,7.2,16.1,16.1c0,8.9-7.2,16.1-16.1,16.1h-68.9c-8.4,0-15.1,6.8-15.1,15.1
		c0,8.4,6.8,15.1,15.1,15.1h68.9c8.9,0,16.1,7.2,16.1,16.1c0,8.9-7.2,16.1-16.1,16.1h-19.4H448.7h-20.6c-8.9,0-16.1-7.2-16.1-16.1
		c0-8.9,7.2-16.1,16.1-16.1c8.4,0,15.1-6.8,15.1-15.1c0-8.4-6.8-15.1-15.1-15.1c-8.9,0-16.1-7.2-16.1-16.1c0-8.9,7.2-16.1,16.1-16.1
		h94.8c8.4,0,15.1-6.8,15.1-15.1c0-8.4-6.8-15.1-15.1-15.1h-94.8c-8.9,0-16.1-7.2-16.1-16.1c0-8.9,7.2-16.1,16.1-16.1h222.6
		c8.9,0,16.1,7.2,16.1,16.1c0,8.9-7.2,16.1-16.1,16.1c-8.4,0-15.1,6.8-15.1,15.1C635.6,773.9,642.4,780.7,650.7,780.7z M452.6,498.5
		c-16.2,0-29.5-13.2-29.5-29.5c0-16.2,13.2-29.5,29.5-29.5c16.2,0,29.5,13.2,29.5,29.5C482,485.3,468.8,498.5,452.6,498.5z
		 M512.3,528.8h55.4v159.3h-55.4V528.8z M756.3,540.7c-25.4,39.9-61.3,72-103.7,92.8c-5.2,2.5-8.5,7.8-8.5,13.6v40.9H598V520.9
		c8.7,5,18.8,7.8,29.5,7.8c32.9,0,59.7-26.8,59.7-59.7c0-32.9-26.8-59.7-59.7-59.7c-32.9,0-59.7,26.8-59.7,59.7v29.5h-55.4V469
		c0-32.9-26.8-59.7-59.7-59.7c-32.9,0-59.7,26.8-59.7,59.7c0,32.9,26.8,59.7,59.7,59.7c10.7,0,20.8-2.8,29.5-7.8v167.1h-47.1v-41.4
		c0-5.8-3.3-11-8.4-13.6c-88-43.6-142.7-131.6-142.7-229.8c0-141.3,114.9-256.2,256.2-256.2s256.2,114.9,256.2,256.2
		C796.2,452.2,782.4,499.7,756.3,540.7z M598,469c0-16.2,13.2-29.5,29.5-29.5c16.2,0,29.5,13.2,29.5,29.5
		c0,16.2-13.2,29.5-29.5,29.5C611.2,498.5,598,485.3,598,469z"/>
	<path class="st0" d="M539.4,187.2c-75.5,0-144.5,38.3-184.4,102.5c-9.1,14.6-16.4,30.3-21.8,46.6c-7.2,21.9-10.8,44.7-10.8,67.9
		c0,8.4,6.8,15.1,15.1,15.1c8.4,0,15.1-6.8,15.1-15.1c0-20,3.1-39.7,9.3-58.5c4.6-14,10.9-27.5,18.7-40.1
		c34.4-55.3,93.7-88.3,158.7-88.3c8.4,0,15.1-6.8,15.1-15.1C554.5,194,547.8,187.2,539.4,187.2z"/>
</g>
</svg>
