<?xml version="1.0" encoding="utf-8"?><svg xmlns="http://www.w3.org/2000/svg" xmlns:xlink="http://www.w3.org/1999/xlink" viewBox="0 0 72.2 72.2" id="icon" fill="#ffffff"><path d="M36.1,16.4c-10.9,0-19.7,8.8-19.7,19.7s8.8,19.7,19.7,19.7S55.8,47,55.8,36.1S47,16.4,36.1,16.4L36.1,16.4z M30.7,19.3c1.7-0.6,3.5-0.9,5.4-0.9c1.9,0,3.8,0.3,5.5,0.9c-1.1,0.8-1.9,1.9-2.4,3.1c-0.8,2.3,0,4.3,0.7,6.1l0.1,0.2c0.4,1.1,0.6,2.4-0.4,3.4c-0.4-0.4-0.9-0.7-1.4-0.9c0.2-2.2-1.1-4.2-3.6-5.3l-0.2-0.1c-1.6-0.7-3-1.4-3.8-2.7C29.8,21.7,30.2,20.2,30.7,19.3L30.7,19.3L30.7,19.3z M38.9,36.1c0,1.5-1.2,2.8-2.8,2.8s-2.8-1.2-2.8-2.8c0-1.5,1.2-2.8,2.8-2.8S38.9,34.5,38.9,36.1z M27.8,20.5c-0.2,1.3,0,2.6,0.6,3.8c1.1,2.1,3.1,3,4.9,3.8l0.2,0.1c1.1,0.5,2.2,1.3,2.2,2.7c-0.6,0-1.1,0.2-1.7,0.4c-1.5-1.7-3.8-2.2-6.4-1.3l-0.2,0.1c-1.7,0.6-3.1,1.1-4.6,0.7c-1.5-0.5-2.2-1.6-2.6-2.6C21.9,24.9,24.6,22.2,27.8,20.5z M19.2,41.5c-0.5-1.7-0.8-3.5-0.8-5.3c0-1.8,0.3-3.5,0.8-5.1c0.8,0.9,1.8,1.6,3,2c2.3,0.7,4.4,0,6.2-0.7l0.2-0.1c1.1-0.4,2.5-0.6,3.5,0.4c-0.3,0.4-0.6,0.9-0.8,1.4c-2.3-0.2-4.3,1-5.5,3.5l-0.1,0.2c-0.7,1.6-1.4,3-2.7,3.6C21.5,42.1,20.1,41.8,19.2,41.5L19.2,41.5L19.2,41.5z M27.8,51.8c-3.2-1.7-5.8-4.3-7.5-7.6c0.3,0,0.6,0,0.8,0c1,0,1.9-0.2,2.8-0.7c2.2-1.1,3.1-3,3.9-4.8l0.1-0.2c0.5-1.1,1.4-2.2,2.9-2.1c0,0.5,0.2,1,0.4,1.5c-1.8,1.4-2.3,3.8-1.3,6.3l0.1,0.2c0.6,1.6,1.2,3,0.7,4.5c-0.5,1.6-1.9,2.3-2.9,2.6L27.8,51.8L27.8,51.8z M41.6,53c-1.7,0.6-3.5,0.9-5.4,0.9s-3.7-0.3-5.4-0.9c1.1-0.8,1.9-1.9,2.4-3.1c0.8-2.3,0-4.3-0.7-6.1l-0.1-0.2c-0.4-1.1-0.6-2.5,0.5-3.4c0.4,0.4,0.9,0.7,1.4,0.9c-0.2,2.3,1.1,4.3,3.6,5.4l0.2,0.1c1.6,0.7,3,1.4,3.8,2.7C42.4,50.6,42,52,41.6,53L41.6,53L41.6,53z M44.5,51.7c0.2-1.3,0-2.6-0.6-3.7c-1.1-2.1-3.1-3-4.9-3.8l-0.2-0.1c-1.1-0.5-2.2-1.3-2.2-2.8c0.6,0,1.1-0.2,1.6-0.4c1.5,1.8,3.8,2.3,6.4,1.4l0.2-0.1c1.7-0.6,3.1-1.1,4.6-0.7c1.5,0.5,2.2,1.6,2.5,2.5C50.3,47.3,47.7,50,44.5,51.7L44.5,51.7z M53.8,36.1c0,1.8-0.3,3.5-0.8,5.1c-0.8-0.9-1.8-1.6-2.9-2c-2.3-0.7-4.4,0-6.2,0.7L43.8,40c-1.1,0.4-2.6,0.6-3.6-0.5c0.3-0.4,0.6-0.8,0.8-1.3c0.2,0,0.4,0,0.6,0c2.1,0,3.9-1.3,5-3.5l0.1-0.2c0.7-1.6,1.4-3,2.7-3.6c1.4-0.7,2.8-0.4,3.7,0.1C53.6,32.6,53.8,34.3,53.8,36.1L53.8,36.1z M48.3,28.6c-2.2,1.1-3.1,3-3.9,4.8l-0.1,0.2c-0.5,1.1-1.4,2.2-2.9,2.1c0-0.5-0.2-1-0.3-1.5c1.8-1.4,2.3-3.8,1.3-6.3l-0.1-0.2c-0.6-1.6-1.2-3-0.7-4.5c0.5-1.6,1.9-2.3,2.9-2.6l0-0.1c3.2,1.7,5.8,4.3,7.4,7.5C50.6,27.9,49.4,28.1,48.3,28.6L48.3,28.6z"/><path d="M36.1,11C22.3,11,11,22.3,11,36.1s11.2,25.1,25.1,25.1S61.2,50,61.2,36.1S50,11,36.1,11z M36.1,58.1c-12.1,0-22-9.9-22-22s9.9-22,22-22s22,9.9,22,22S48.2,58.1,36.1,58.1z"/><path d="M57,15.4c-2.3-2.4-5.4-4.1-8.1-4.7c-0.2,0-0.3,0.1-0.4,0.2c0,0.2,0,0.3,0.2,0.4c2.6,1.2,5.1,2.9,7.2,5.1c2.2,2.2,3.9,4.7,5.1,7.3c0,0.1,0.2,0.2,0.3,0.2c0,0,0.1,0,0.1,0c0.2,0,0.3-0.2,0.2-0.4C61.1,20.7,59.4,17.8,57,15.4L57,15.4z M23.5,60.9c-2.6-1.2-5.1-2.9-7.2-5.1c-2.2-2.2-3.9-4.7-5.1-7.3c-0.1-0.2-0.3-0.2-0.4-0.2s-0.3,0.2-0.2,0.4c0.6,2.9,2.2,5.8,4.6,8.2c2.3,2.4,5.4,4.1,8.1,4.7h0.1c0.1,0,0.3-0.1,0.3-0.2C23.8,61.1,23.7,60.9,23.5,60.9L23.5,60.9z"/></svg>
