<?xml version="1.0" encoding="utf-8"?>
<!-- Generator: Adobe Illustrator 21.0.0, SVG Export Plug-In . SVG Version: 6.00 Build 0)  -->
<svg version="1.1" id="icon" xmlns="http://www.w3.org/2000/svg" xmlns:xlink="http://www.w3.org/1999/xlink" x="0px" y="0px"
	 viewBox="0 0 51.1 50.9" style="enable-background:new 0 0 51.1 50.9;" xml:space="preserve">
<style type="text/css">
	.st0{fill:#FFFFFF;}
</style>
<path class="st0" d="M25.5,5.7c-10.9,0-19.7,8.8-19.7,19.7s8.8,19.7,19.7,19.7s19.7-8.8,19.7-19.7S36.4,5.7,25.5,5.7L25.5,5.7z
	 M20.1,8.6c1.7-0.6,3.5-0.9,5.4-0.9S29.3,8,31,8.6c-1.1,0.8-1.9,1.9-2.4,3.1c-0.8,2.3,0,4.3,0.7,6.1l0.1,0.2
	c0.4,1.1,0.6,2.4-0.4,3.4c-0.4-0.4-0.9-0.7-1.4-0.9c0.2-2.2-1.1-4.2-3.6-5.3l-0.2-0.1c-1.6-0.7-3-1.4-3.8-2.7
	C19.2,11,19.6,9.5,20.1,8.6L20.1,8.6L20.1,8.6z M28.3,25.4c0,1.5-1.2,2.8-2.8,2.8s-2.8-1.2-2.8-2.8c0-1.5,1.2-2.8,2.8-2.8
	S28.3,23.8,28.3,25.4z M17.2,9.8c-0.2,1.3,0,2.6,0.6,3.8c1.1,2.1,3.1,3,4.9,3.8l0.2,0.1c1.1,0.5,2.2,1.3,2.2,2.7
	c-0.6,0-1.1,0.2-1.7,0.4c-1.5-1.7-3.8-2.2-6.4-1.3l-0.2,0.1c-1.7,0.6-3.1,1.1-4.6,0.7c-1.5-0.5-2.2-1.6-2.6-2.6
	C11.3,14.2,14,11.5,17.2,9.8z M8.6,30.8c-0.5-1.7-0.8-3.5-0.8-5.3s0.3-3.5,0.8-5.1c0.8,0.9,1.8,1.6,3,2c2.3,0.7,4.4,0,6.2-0.7
	l0.2-0.1c1.1-0.4,2.5-0.6,3.5,0.4c-0.3,0.4-0.6,0.9-0.8,1.4c-2.3-0.2-4.3,1-5.5,3.5l-0.1,0.2c-0.7,1.6-1.4,3-2.7,3.6
	C10.9,31.4,9.5,31.1,8.6,30.8L8.6,30.8L8.6,30.8z M17.2,41.1c-3.2-1.7-5.8-4.3-7.5-7.6c0.3,0,0.6,0,0.8,0c1,0,1.9-0.2,2.8-0.7
	c2.2-1.1,3.1-3,3.9-4.8l0.1-0.2c0.5-1.1,1.4-2.2,2.9-2.1c0,0.5,0.2,1,0.4,1.5c-1.8,1.4-2.3,3.8-1.3,6.3l0.1,0.2
	c0.6,1.6,1.2,3,0.7,4.5c-0.5,1.6-1.9,2.3-2.9,2.6V41.1L17.2,41.1z M31,42.3c-1.7,0.6-3.5,0.9-5.4,0.9s-3.7-0.3-5.4-0.9
	c1.1-0.8,1.9-1.9,2.4-3.1c0.8-2.3,0-4.3-0.7-6.1l-0.1-0.2c-0.4-1.1-0.6-2.5,0.5-3.4c0.4,0.4,0.9,0.7,1.4,0.9
	c-0.2,2.3,1.1,4.3,3.6,5.4l0.2,0.1c1.6,0.7,3,1.4,3.8,2.7C31.8,39.9,31.4,41.3,31,42.3L31,42.3L31,42.3z M33.9,41
	c0.2-1.3,0-2.6-0.6-3.7c-1.1-2.1-3.1-3-4.9-3.8l-0.2-0.1c-1.1-0.5-2.2-1.3-2.2-2.8c0.6,0,1.1-0.2,1.6-0.4c1.5,1.8,3.8,2.3,6.4,1.4
	l0.2-0.1c1.7-0.6,3.1-1.1,4.6-0.7c1.5,0.5,2.2,1.6,2.5,2.5C39.7,36.6,37.1,39.3,33.9,41L33.9,41z M43.2,25.4c0,1.8-0.3,3.5-0.8,5.1
	c-0.8-0.9-1.8-1.6-2.9-2c-2.3-0.7-4.4,0-6.2,0.7l-0.1,0.1c-1.1,0.4-2.6,0.6-3.6-0.5c0.3-0.4,0.6-0.8,0.8-1.3c0.2,0,0.4,0,0.6,0
	c2.1,0,3.9-1.3,5-3.5l0.1-0.2c0.7-1.6,1.4-3,2.7-3.6c1.4-0.7,2.8-0.4,3.7,0.1C43,21.9,43.2,23.6,43.2,25.4L43.2,25.4z M37.7,17.9
	c-2.2,1.1-3.1,3-3.9,4.8l-0.1,0.2c-0.5,1.1-1.4,2.2-2.9,2.1c0-0.5-0.2-1-0.3-1.5c1.8-1.4,2.3-3.8,1.3-6.3L31.7,17
	c-0.6-1.6-1.2-3-0.7-4.5c0.5-1.6,1.9-2.3,2.9-2.6V9.8c3.2,1.7,5.8,4.3,7.4,7.5C40,17.2,38.8,17.4,37.7,17.9L37.7,17.9z"/>
<path class="st0" d="M25.5,0.3C11.7,0.3,0.4,11.6,0.4,25.4s11.2,25.1,25.1,25.1s25.1-11.2,25.1-25.1S39.4,0.3,25.5,0.3z M25.5,47.4
	c-12.1,0-22-9.9-22-22s9.9-22,22-22s22,9.9,22,22S37.6,47.4,25.5,47.4z"/>
<path class="st0" d="M46.4,4.7C44.1,2.3,41,0.6,38.3,0c-0.2,0-0.3,0.1-0.4,0.2c0,0.2,0,0.3,0.2,0.4c2.6,1.2,5.1,2.9,7.2,5.1
	c2.2,2.2,3.9,4.7,5.1,7.3c0,0.1,0.2,0.2,0.3,0.2h0.1c0.2,0,0.3-0.2,0.2-0.4C50.5,10,48.8,7.1,46.4,4.7L46.4,4.7z M12.9,50.2
	c-2.6-1.2-5.1-2.9-7.2-5.1c-2.2-2.2-3.9-4.7-5.1-7.3c-0.1-0.2-0.3-0.2-0.4-0.2S-0.1,37.8,0,38c0.6,2.9,2.2,5.8,4.6,8.2
	c2.3,2.4,5.4,4.1,8.1,4.7h0.1c0.1,0,0.3-0.1,0.3-0.2C13.2,50.4,13.1,50.2,12.9,50.2L12.9,50.2z"/>
</svg>
